<svg id="Layer_1" data-name="Layer 1" xmlns="http://www.w3.org/2000/svg" viewBox="0 0 640 640"><path fill="white" d="M115.5,148.92c-24.36,0-46.72-12.9-46.72-46.54,0-33.45,22.36-46.54,46.72-46.54h410c24.18,0,46.54,13.09,46.54,46.54,0,33.64-22.36,46.54-46.54,46.54Z"/><path fill="white" d="M115.5,364.92c-24.36,0-46.72-12.9-46.72-46.54,0-33.45,22.36-46.54,46.72-46.54h410c24.18,0,46.54,13.09,46.54,46.54,0,33.64-22.36,46.54-46.54,46.54Z"/><path fill="white" d="M115.5,580.92c-24.36,0-46.72-12.9-46.72-46.54,0-33.45,22.36-46.54,46.72-46.54h410c24.18,0,46.54,13.09,46.54,46.54,0,33.64-22.36,46.54-46.54,46.54Z"/></svg>