<svg xmlns="http://www.w3.org/2000/svg" viewBox="0 0 602.16 208.85"><defs><style>.cls-1{fill:#fff;}</style></defs><g id="Layer_2" data-name="Layer 2"><g id="Layer_1-2" data-name="Layer 1"><path class="cls-1" d="M185.47,119.84c3.51-2.08,6.64-4.35,10.09-5.87,6.6-2.91,13.3-5.69,20.15-8,4.83-1.6,8.37-4,9.44-9.13,1.14-5.52,2-11.1,3.41-16.57,1.2-4.82,2.45-10.47,8.22-11.36s8.95,4.09,11,8.51a34.39,34.39,0,0,1,3.57,13.77c.29,36.73.16,73.47.15,110.2a19.43,19.43,0,0,1-.25,2.16H234.9V198c-.05-18-.05-35.91-.18-53.86a41.84,41.84,0,0,0-1-8.86c-2.72-12.09-9.11-16.76-21.17-13.61-7.35,1.92-14.25,6-20.9,9.89-1.7,1-2.34,4.9-2.36,7.48-.17,19.44-.06,38.89,0,58.34v6.5c-4.91,0-9.38.31-13.75-.22-1.13-.14-2.72-2.92-2.76-4.52-.24-11.46-.13-22.93-.13-34.4q0-12.47,0-24.94c0-13.44-9.13-21.44-22.14-18.11-7,1.8-13.59,5.84-20,9.42-1.44.8-2.17,3.93-2.19,6-.2,19.61-.16,39.23-.19,58.84,0,1.75,0,3.5,0,5.25l-1.41.9c-4.68-3.8-9.4-7.56-14-11.46a3.9,3.9,0,0,1-.92-2.68c0-26.41,0-52.81,0-79.54h16.21c.16,2.71.31,5.31.51,8.76,2.79-1.58,5.16-2.85,7.47-4.24,10-6,20.6-10,32.18-5.68,4.93,1.83,9.23,5.46,13.68,8.47C183.16,116.7,184.14,118.34,185.47,119.84Z"/><path class="cls-1" d="M578.13,69.54a1.52,1.52,0,0,1,2.48,1.67c-2.25,4.84-4.59,9.64-6.65,14.56-3.41,8.16-2.23,11.3,5.95,14.12,15,5.19,22.07,15.78,22.18,31.25.14,21.4,0,42.81,0,64.78H586.3c-.13-2.74-.27-5.44-.42-8.62-4.54,2.68-8.49,5.38-12.75,7.45-11.42,5.56-23.32,7-35.18,1.77-11.49-5-17.2-14.55-17.38-26.85-.18-12.73,4.48-23.58,17.07-28.34,8.41-3.18,17.55-4.66,26.49-6.21,7-1.22,14.18-1.37,21.1-2,2.13-8.5-2.22-16-10.19-18-4.84-1.18-9.79-1.89-14.66-2.93-5.94-1.27-7.66-4.36-4.77-9.7,4.34-8,9.34-15.69,13.73-23.68ZM586,145.79c-11.84,1.76-23.29,3.29-34.65,5.27a17,17,0,0,0-7.44,3.75c-4.89,4-7.33,9.19-5.92,15.81s4.71,10.78,11.7,12.44c13,3.08,23.72-1.91,34-8.66a5.89,5.89,0,0,0,2.18-4.17C586.06,162.31,586,154.38,586,145.79Z"/><path class="cls-1" d="M.07,169.81a52,52,0,0,1,5.07,3c9.13,7,19.24,8.53,30.19,5.61,9.05-2.42,18-4.27,27.42-1.05,2.55.88,7.44-.31,8.86-2.27s.56-6.51-.82-9.12c-4.32-8.15-11.32-14.07-19.4-18.12a281.93,281.93,0,0,0-32.24-14.13C4.31,128.49-1.72,117.92,2,101.15,5.53,85.24,12.33,82,27,89.19s26.67,18,39,28.34c4.71,4,9.12,8.4,14.28,11.65,7.92,5,11.18,11.46,8.47,21.52-4.39-4.47-8.51-8.81-12.77-13-12-11.83-23.3-24.53-38.16-33a42.58,42.58,0,0,0-10.58-4.09c-3.86-1-5.53,1.31-5.33,5C22.2,110.65,25.14,114,29,117c13.54,10.72,27.56,21,40.13,32.72,8.48,8,14.92,18.1,22.08,27.41,1.36,1.77,2,4.2,2.68,6.39,1.61,4.78-.72,8.75-5.74,9.27Q61.36,195.53,34.56,198c-12.15,1.12-22.22-4.68-32.25-10.25-1.23-.68-2-3-2.14-4.66C-.14,178.94.07,174.78.07,169.81Z"/><path class="cls-1" d="M508,181v14.49c-7.77,3.22-16.08,2.5-24.29,2.4-10.88-.14-19.58-6.39-22.61-16.87a80.11,80.11,0,0,1-2.7-15.64,44.1,44.1,0,0,1,5.08-25.51c2.74-5,2.21-9-1.49-13.58-2.26-2.81-3.2-7.29-3.31-11.07-.39-12.93-.15-25.89-.15-39.5l-9.9,2.65V67.84c.12,0,.4-.27.62-.22,8.52,1.83,9,1.62,9.1-6.76.16-9.64.69-19.34-.17-28.9C456.92,17.9,463,8.08,474.52,0V61.54l32.83-9.94c1.85,6.45,1.55,7-4.2,8.7-7.8,2.3-15.57,4.69-23.41,6.84-3.27.9-4.55,2.66-4.53,6q.09,19.44-.2,38.89c-.05,3.83,1.08,6.87,4.31,8.93s3.59,4.9,2.25,8.21a7.62,7.62,0,0,1-.58,1.37c-8.08,12.15-6.31,25.79-5.55,39.12.64,11.27,10.46,16.88,23.22,13.91C501.71,182.91,504.7,181.94,508,181Z"/><path class="cls-1" d="M383.37,61.59c4.55,1.41,9.15,2.08,12.86,4.25,2.25,1.33,3.15,5,5.16,8.42,3.61-2.18,8-5,12.57-7.57C421.58,62.4,429.15,58,437,54.19c4.13-2,6.05-.62,6.19,3.75.21,7,.32,14-.11,20.92-.1,1.55-2.4,3.65-4.11,4.23-2.25.77-4.92.3-7.41.33-3.62,0-6.07-1.26-6.43-5.3-.31-3.39-2.41-4.94-5.5-3.48a157.67,157.67,0,0,0-17.87,9.55c-1.51,1-2,4.41-2,6.73-.21,15.12-.16,30.24-.2,45.35,0,1.62,0,3.24,0,5.58-5-1.38-9.32-2.36-13.48-3.87a4.87,4.87,0,0,1-2.61-3.62C383.33,110.15,383.37,85.94,383.37,61.59Z"/><path class="cls-1" d="M558.14,75.24c-1.21,3.11-1.71,6.84-3.78,9.2a272.2,272.2,0,0,1-21.12,21.71c-2.28,2.07-7.38,3.68-9.69,2.51-3.59-1.81-2.65-6.52-1.56-10.35,1.65-5.79,4.5-10.83,9.9-13.7,6.71-3.57,13.66-6.68,20.57-9.85,1.26-.58,2.83-.46,4.26-.67Z"/><path class="cls-1" d="M383.5,195.7V170.42l15.68-5v30.3Z"/><path class="cls-1" d="M279.34,102.32c0-5.83-.23-11.67.07-17.49.29-5.6,7.09-9.39,12.45-7.33a6.35,6.35,0,0,0,2.43.1c12.07-.44,24.22-2,36.17-1s22.32,6.44,27.9,18.07A24.31,24.31,0,0,1,359.62,98a33.25,33.25,0,0,1,1.32,9.25l1.21,101.65c-2.59-.64-5.24-1.27-7.87-1.95-1.41-.36-10.83-2.69-9.89-7.72-6.95,0-13.72-.48-20.36.2-3.21.33-5.67,3.8-9.75,3-14.33-2.9-28.31-6.48-38.43-18.06a19.09,19.09,0,0,1-4.27-8.31c-1.13-5-1.44-10.22-1.95-15.36h0a3.86,3.86,0,0,1,4.61-4.16l6.6,1.33.56.12a3.9,3.9,0,0,0,4.6-4.72v0c-1.66-5.58-3.87-11-5.67-16.55a8.16,8.16,0,0,1,7.94-10.6c6.55,0,7.18-.41,9.51-6.11,1.59-3.86,4.35-5.52,7.77-3.61,4.95,2.76,9.95,1.14,14.89,1,6.42-.12,12.83-1.28,19.25-1.31,4.11,0,4.88-1.63,4.66-5.2a18.9,18.9,0,0,0-17.83-18.17c-4.2-.35-8.4-1.43-12.58-1.31-5.28.14-10.54,1.15-15.81,1.8-.48.06-1,.44-1.42.38-6.6-.87-8.93.38-12.09,5.86-.83,1.45-2.36,2.49-3.65,3.67Zm11.77,66.9a2.22,2.22,0,0,0-2.15,2.89,14.26,14.26,0,0,0,1.89,4c4.51,5.6,11,8.44,17.35,10.94s7.07,5,14.21,5.71a77.79,77.79,0,0,0,8.31.27c1.69-.13,3.69-.12,4.9-1.05.59-.45.12-3.13-.63-4.33-1.88-3-4.23-5.66-6.31-8.53-4.74-6.55-3.31-10.3,4.12-11.77,1.25-.25,2.62-2.06,3.11-3.44s0-3.26,0-4.92c-.08-3.58,1.42-4.62,5-4.2,1.05.13,3.25-1.2,3.27-1.91.24-7.68.15-15.37.15-22.69-6.94.32-13.22.59-19.49.9-3.85.19-7.38-.21-10.68-2.76-2.8-2.16-7.36-.4-7.92,2.54-1.24,6.48-2.56,7.66-9.45,8-3.84.2-5.33,2.14-5.56,5.92-.47,7.87,4.07,14,7,20.6,1.45,3.21.43,3.59-2,3.75C294.52,169.27,292.81,169.25,291.11,169.22Zm51.83,19.4,1-.23V175.72c-3,0-4.72,1.29-4.13,3.88A76.61,76.61,0,0,0,342.94,188.62Z"/></g></g></svg>