<?xml version="1.0" standalone="no"?>
<!DOCTYPE svg PUBLIC "-//W3C//DTD SVG 20010904//EN"
 "http://www.w3.org/TR/2001/REC-SVG-20010904/DTD/svg10.dtd">
<svg version="1.0" xmlns="http://www.w3.org/2000/svg"
 width="2752.000000pt" height="2752.000000pt" viewBox="0 0 2752.000000 2752.000000"
 preserveAspectRatio="xMidYMid meet">
<metadata>
Created by potrace 1.11, written by Peter Selinger 2001-2013
</metadata>
<g transform="translate(0.000000,2752.000000) scale(0.100000,-0.100000)"
fill="#000000" stroke="none">
<path d="M16599 16999 c-12 -7 -14 -441 -14 -3079 0 -2046 3 -3070 10 -3071
26 -3 2321 -5 2330 -2 11 4 15 6136 5 6147 -5 5 -41 7 -95 6 -36 -1 -140 -1
-155 -1 -8 0 -33 0 -55 0 -40 0 -54 0 -77 2 -17 1 -134 0 -173 -2 -16 0 -34
-1 -40 -1 -5 1 -107 1 -225 1 -118 0 -224 0 -235 0 -11 0 -47 0 -80 0 -33 0
-67 0 -75 0 -8 0 -33 0 -55 0 -40 0 -54 0 -77 2 -17 1 -134 0 -173 -2 -16 0
-34 -1 -40 -1 -5 1 -107 1 -225 1 -118 0 -224 0 -235 0 -11 0 -47 0 -80 0 -33
0 -67 0 -75 0 -69 2 -93 2 -97 -3 -3 -2 -15 -1 -27 4 -13 4 -29 4 -37 -1z"/>
<path d="M19468 17002 l-38 -3 0 -72 c-1 -95 -1 -6264 0 -6342 l0 -60 245 0
c173 0 248 4 253 12 8 13 8 6450 0 6458 -3 3 -59 5 -124 5 -66 -1 -130 0 -144
0 -71 4 -159 5 -192 2z"/>
<path d="M13750 13911 l0 -3078 1170 0 1170 -1 0 32 c1 44 1 6087 1 6109 -1
16 -64 17 -1171 17 l-1170 0 0 -3079z"/>
<path d="M7610 16613 c0 -233 1 -2687 2 -4211 l2 -1893 2821 2 2821 2 2 1120
c0 616 3 1122 6 1125 3 2 1 13 -5 24 -7 13 -7 23 0 31 6 8 6 18 1 27 -4 7 -4
23 0 35 5 14 4 27 -2 33 -7 7 -6 16 1 30 7 13 7 23 1 27 -6 3 -6 15 0 29 5 13
7 26 4 29 -4 4 -5 29 -3 112 0 11 0 206 -1 434 0 228 1 416 4 418 2 3 0 17 -4
33 -4 16 -6 31 -3 34 3 3 5 38 4 78 -1 40 -1 116 0 168 4 533 3 2360 -2 2360
-6 0 -68 -64 -304 -315 -71 -75 -150 -159 -175 -185 -25 -26 -90 -95 -145
-154 -55 -58 -127 -135 -160 -169 -33 -35 -123 -131 -200 -212 -77 -82 -153
-163 -170 -180 -16 -18 -84 -89 -150 -159 -66 -71 -145 -154 -175 -186 -30
-32 -111 -118 -180 -191 -69 -73 -150 -159 -180 -190 -30 -32 -98 -103 -150
-159 -52 -56 -117 -126 -145 -155 -27 -29 -108 -114 -180 -190 -71 -76 -148
-157 -170 -180 -184 -194 -286 -303 -303 -322 -11 -13 -24 -23 -31 -23 -6 0
-39 30 -74 67 -34 36 -84 90 -112 119 -27 29 -105 110 -171 181 -67 70 -151
158 -186 196 -36 37 -64 67 -63 67 1 0 -30 33 -69 74 -65 67 -302 317 -386
406 -70 75 -286 304 -335 355 -27 28 -106 112 -175 185 -69 73 -154 163 -190
200 -36 38 -114 121 -175 185 -60 64 -139 148 -175 185 -36 37 -119 125 -185
195 -66 70 -140 149 -165 175 -25 26 -110 116 -190 200 -80 84 -149 159 -153
166 -16 27 -27 13 -27 -33z"/>
</g>
</svg>
