<svg width="29" height="28" viewBox="0 0 29 28" fill="none" xmlns="http://www.w3.org/2000/svg">
<path d="M20.542 2.33331H8.45866C5.12194 2.33331 2.41699 4.94499 2.41699 8.16665V19.8333C2.41699 23.055 5.12194 25.6666 8.45866 25.6666H20.542C23.8787 25.6666 26.5837 23.055 26.5837 19.8333V8.16665C26.5837 4.94499 23.8787 2.33331 20.542 2.33331Z" stroke="white" stroke-width="2" stroke-linecap="round" stroke-linejoin="round"/>
<path d="M19.3331 13.265C19.4823 14.2359 19.3105 15.2276 18.8423 16.0988C18.374 16.9701 17.6332 17.6766 16.7251 18.1179C15.817 18.5592 14.7879 18.7128 13.7842 18.5569C12.7805 18.401 11.8533 17.9434 11.1344 17.2493C10.4155 16.5553 9.94165 15.66 9.78014 14.6909C9.61863 13.7218 9.77772 12.7282 10.2348 11.8514C10.6919 10.9746 11.4236 10.2593 12.326 9.80727C13.2284 9.35518 14.2554 9.18934 15.2611 9.33332C16.2868 9.48018 17.2365 9.94169 17.9698 10.6497C18.703 11.3577 19.181 12.2746 19.3331 13.265Z" stroke="white" stroke-width="2" stroke-linecap="round" stroke-linejoin="round"/>
<path d="M21.1455 7.58331H21.1576" stroke="white" stroke-width="2" stroke-linecap="round" stroke-linejoin="round"/>
</svg>
