<?xml version="1.0" encoding="utf-8"?>
<!-- Generator: Adobe Illustrator 24.3.0, SVG Export Plug-In . SVG Version: 6.00 Build 0)  -->
<svg version="1.1" id="Layer_1" xmlns="http://www.w3.org/2000/svg" xmlns:xlink="http://www.w3.org/1999/xlink" x="0px" y="0px"
	 viewBox="0 0 602.2 208.9" style="enable-background:new 0 0 602.2 208.9;" xml:space="preserve">
<style type="text/css">
	.st0{fill:#72FD7D;}
</style>
<g id="Layer_2_1_">
	<g id="Layer_1-2">
		<path class="st0" d="M185.5,119.8c3.5-2.1,6.6-4.3,10.1-5.9c6.6-2.9,13.3-5.7,20.1-8c4.8-1.6,8.4-4,9.4-9.1
			c1.1-5.5,2-11.1,3.4-16.6c1.2-4.8,2.4-10.5,8.2-11.4s8.9,4.1,11,8.5c2.1,4.3,3.4,9,3.6,13.8c0.3,36.7,0.2,73.5,0.1,110.2
			c0,0.7-0.1,1.4-0.2,2.2h-16.4V198c-0.1-18-0.1-35.9-0.2-53.9c0-3-0.4-6-1-8.9c-2.7-12.1-9.1-16.8-21.2-13.6
			c-7.4,1.9-14.2,6-20.9,9.9c-1.7,1-2.3,4.9-2.4,7.5c-0.2,19.4-0.1,38.9,0,58.3v6.5c-4.9,0-9.4,0.3-13.8-0.2
			c-1.1-0.1-2.7-2.9-2.8-4.5c-0.2-11.5-0.1-22.9-0.1-34.4c0-8.3,0-16.6,0-24.9c0-13.4-9.1-21.4-22.1-18.1c-7,1.8-13.6,5.8-20,9.4
			c-1.4,0.8-2.2,3.9-2.2,6c-0.2,19.6-0.2,39.2-0.2,58.8c0,1.8,0,3.5,0,5.2l-1.4,0.9c-4.7-3.8-9.4-7.6-14-11.5
			c-0.6-0.7-1-1.7-0.9-2.7c0-26.4,0-52.8,0-79.5H128c0.2,2.7,0.3,5.3,0.5,8.8c2.8-1.6,5.2-2.8,7.5-4.2c10-6,20.6-10,32.2-5.7
			c4.9,1.8,9.2,5.5,13.7,8.5C183.2,116.7,184.1,118.3,185.5,119.8z"/>
		<path class="st0" d="M578.1,69.5c0.6-0.6,1.5-0.6,2.1,0c0.5,0.4,0.6,1.1,0.3,1.7c-2.2,4.8-4.6,9.6-6.7,14.6
			c-3.4,8.2-2.2,11.3,6,14.1c15,5.2,22.1,15.8,22.2,31.3c0.1,21.4,0,42.8,0,64.8h-15.8c-0.1-2.7-0.3-5.4-0.4-8.6
			c-4.5,2.7-8.5,5.4-12.8,7.4c-11.4,5.6-23.3,7-35.2,1.8c-11.5-5-17.2-14.6-17.4-26.9c-0.2-12.7,4.5-23.6,17.1-28.3
			c8.4-3.2,17.5-4.7,26.5-6.2c7-1.2,14.2-1.4,21.1-2c2.1-8.5-2.2-16-10.2-18c-4.8-1.2-9.8-1.9-14.7-2.9c-5.9-1.3-7.7-4.4-4.8-9.7
			c4.3-8,9.3-15.7,13.7-23.7L578.1,69.5z M586,145.8c-11.8,1.8-23.3,3.3-34.7,5.3c-2.8,0.6-5.3,1.9-7.4,3.8c-4.9,4-7.3,9.2-5.9,15.8
			s4.7,10.8,11.7,12.4c13,3.1,23.7-1.9,34-8.7c1.3-1,2.1-2.5,2.2-4.2C586.1,162.3,586,154.4,586,145.8z"/>
		<path class="st0" d="M0.1,169.8c1.7,0.9,3.4,1.9,5.1,3c9.1,7,19.2,8.5,30.2,5.6c9-2.4,18-4.3,27.4-1.1c2.6,0.9,7.4-0.3,8.9-2.3
			s0.6-6.5-0.8-9.1c-4.3-8.1-11.3-14.1-19.4-18.1c-10.4-5.4-21.2-10.1-32.2-14.1C4.3,128.5-1.7,117.9,2,101.1
			c3.5-15.9,10.3-19.2,25-12s26.7,18,39,28.3c4.7,4,9.1,8.4,14.3,11.7c7.9,5,11.2,11.5,8.5,21.5c-4.4-4.5-8.5-8.8-12.8-13
			c-12-11.8-23.3-24.5-38.2-33c-3.3-1.8-6.9-3.2-10.6-4.1c-3.9-1-5.5,1.3-5.3,5c0.3,5,3.2,8.4,7.1,11.4c13.5,10.7,27.6,21,40.1,32.7
			c8.5,8,14.9,18.1,22.1,27.4c1.4,1.8,2,4.2,2.7,6.4c1.6,4.8-0.7,8.8-5.7,9.3c-17.9,1.8-35.7,3.6-53.6,5.2
			c-12.1,1.1-22.2-4.7-32.2-10.2c-1.2-0.7-2-3-2.1-4.7C-0.1,178.9,0.1,174.8,0.1,169.8z"/>
		<path class="st0" d="M508,181v14.5c-7.8,3.2-16.1,2.5-24.3,2.4c-10.9-0.1-19.6-6.4-22.6-16.9c-1.4-5.1-2.3-10.4-2.7-15.6
			c-0.9-8.8,0.9-17.7,5.1-25.5c2.7-5,2.2-9-1.5-13.6c-2.3-2.8-3.2-7.3-3.3-11.1c-0.4-12.9-0.1-25.9-0.1-39.5l-9.9,2.7V67.8
			c0.1,0,0.4-0.3,0.6-0.2c8.5,1.8,9,1.6,9.1-6.8c0.2-9.6,0.7-19.3-0.2-28.9c-1.3-14.1,4.8-23.9,16.3-32v61.5l32.8-9.9
			c1.9,6.5,1.5,7-4.2,8.7c-7.8,2.3-15.6,4.7-23.4,6.8c-3.3,0.9-4.5,2.7-4.5,6c0.1,13,0,25.9-0.2,38.9c0,3.8,1.1,6.9,4.3,8.9
			s3.6,4.9,2.2,8.2c-0.1,0.5-0.3,0.9-0.6,1.4c-8.1,12.1-6.3,25.8-5.5,39.1c0.6,11.3,10.5,16.9,23.2,13.9
			C501.7,182.9,504.7,181.9,508,181z"/>
		<path class="st0" d="M383.4,61.6c4.5,1.4,9.1,2.1,12.9,4.2c2.2,1.3,3.1,5,5.2,8.4c3.6-2.2,8-5,12.6-7.6c7.6-4.3,15.2-8.7,23-12.5
			c4.1-2,6-0.6,6.2,3.8c0.2,7,0.3,14-0.1,20.9c-0.1,1.6-2.4,3.7-4.1,4.2c-2.2,0.8-4.9,0.3-7.4,0.3c-3.6,0-6.1-1.3-6.4-5.3
			c-0.3-3.4-2.4-4.9-5.5-3.5c-6.2,2.8-12.1,6-17.9,9.6c-1.5,1-2,4.4-2,6.7c-0.2,15.1-0.2,30.2-0.2,45.4c0,1.6,0,3.2,0,5.6
			c-5-1.4-9.3-2.4-13.5-3.9c-1.4-0.7-2.4-2.1-2.6-3.6C383.3,110.1,383.4,85.9,383.4,61.6z"/>
		<path class="st0" d="M558.1,75.2c-1.2,3.1-1.7,6.8-3.8,9.2c-6.6,7.6-13.7,14.9-21.1,21.7c-2.3,2.1-7.4,3.7-9.7,2.5
			c-3.6-1.8-2.7-6.5-1.6-10.3c1.7-5.8,4.5-10.8,9.9-13.7c6.7-3.6,13.7-6.7,20.6-9.8c1.3-0.6,2.8-0.5,4.3-0.7L558.1,75.2z"/>
		<path class="st0" d="M383.5,195.7v-25.3l15.7-5v30.3L383.5,195.7z"/>
		<path class="st0" d="M279.3,102.3c0-5.8-0.2-11.7,0.1-17.5c0.3-5.6,7.1-9.4,12.5-7.3c0.8,0.2,1.6,0.2,2.4,0.1
			c12.1-0.4,24.2-2,36.2-1s22.3,6.4,27.9,18.1c0.5,1.1,0.9,2.2,1.3,3.3c0.9,3,1.3,6.1,1.3,9.2l1.2,101.7c-2.6-0.6-5.2-1.3-7.9-1.9
			c-1.4-0.4-10.8-2.7-9.9-7.7c-7,0-13.7-0.5-20.4,0.2c-3.2,0.3-5.7,3.8-9.8,3c-14.3-2.9-28.3-6.5-38.4-18.1
			c-2.1-2.4-3.6-5.2-4.3-8.3c-1.1-5-1.4-10.2-2-15.4l0,0c-0.2-2.1,1.3-4,3.5-4.2c0.4,0,0.8,0,1.1,0.1l6.6,1.3l0.6,0.1
			c2.1,0.4,4.2-0.9,4.6-3c0.1-0.6,0.1-1.1,0-1.7l0,0c-1.7-5.6-3.9-11-5.7-16.6c-1.3-4.3,1-8.9,5.3-10.2c0.8-0.3,1.7-0.4,2.6-0.4
			c6.5,0,7.2-0.4,9.5-6.1c1.6-3.9,4.4-5.5,7.8-3.6c5,2.8,10,1.1,14.9,1c6.4-0.1,12.8-1.3,19.2-1.3c4.1,0,4.9-1.6,4.7-5.2
			c-0.4-9.8-8.1-17.6-17.8-18.2c-4.2-0.3-8.4-1.4-12.6-1.3c-5.3,0.1-10.5,1.2-15.8,1.8c-0.5,0.1-1,0.4-1.4,0.4
			c-6.6-0.9-8.9,0.4-12.1,5.9c-0.8,1.4-2.4,2.5-3.6,3.7L279.3,102.3z M291.1,169.2c-1.2,0-2.2,1-2.3,2.2c0,0.2,0,0.5,0.1,0.7
			c0.4,1.4,1.1,2.8,1.9,4c4.5,5.6,11,8.4,17.4,10.9s7.1,5,14.2,5.7c2.8,0.2,5.5,0.3,8.3,0.3c1.7-0.1,3.7-0.1,4.9-1.1
			c0.6-0.4,0.1-3.1-0.6-4.3c-1.9-3-4.2-5.7-6.3-8.5c-4.7-6.6-3.3-10.3,4.1-11.8c1.2-0.2,2.6-2.1,3.1-3.4s0-3.3,0-4.9
			c-0.1-3.6,1.4-4.6,5-4.2c1,0.1,3.2-1.2,3.3-1.9c0.2-7.7,0.1-15.4,0.1-22.7c-6.9,0.3-13.2,0.6-19.5,0.9c-3.9,0.2-7.4-0.2-10.7-2.8
			c-2.8-2.2-7.4-0.4-7.9,2.5c-1.2,6.5-2.6,7.7-9.5,8c-3.8,0.2-5.3,2.1-5.6,5.9c-0.5,7.9,4.1,14,7,20.6c1.5,3.2,0.4,3.6-2,3.8
			C294.5,169.3,292.8,169.2,291.1,169.2z M342.9,188.6l1-0.2v-12.7c-3,0-4.7,1.3-4.1,3.9C340.7,182.7,341.7,185.7,342.9,188.6z"/>
	</g>
</g>
</svg>
