<svg width="28" height="21" viewBox="0 0 28 21" fill="none" xmlns="http://www.w3.org/2000/svg">
<path d="M26.4591 4.33916C26.3195 3.7814 26.0352 3.27035 25.6348 2.85765C25.2345 2.44494 24.7324 2.14519 24.1791 1.98866C22.1577 1.49506 14.072 1.49506 14.072 1.49506C14.072 1.49506 5.98625 1.49506 3.96482 2.03567C3.41157 2.1922 2.90942 2.49195 2.5091 2.90466C2.10877 3.31736 1.82445 3.82841 1.68484 4.38617C1.31489 6.43763 1.13393 8.51871 1.14423 10.6032C1.13104 12.7035 1.31201 14.8004 1.68484 16.8673C1.83875 17.4078 2.12945 17.8994 2.52884 18.2946C2.92823 18.6899 3.42282 18.9755 3.96482 19.1238C5.98625 19.6644 14.072 19.6644 14.072 19.6644C14.072 19.6644 22.1577 19.6644 24.1791 19.1238C24.7324 18.9673 25.2345 18.6675 25.6348 18.2548C26.0352 17.8421 26.3195 17.3311 26.4591 16.7733C26.8262 14.7373 27.0071 12.6721 26.9997 10.6032C27.0129 8.50301 26.8319 6.40607 26.4591 4.33916Z" stroke="white" stroke-width="2" stroke-linecap="round" stroke-linejoin="round"/>
<path d="M11.4268 14.4463L18.1844 10.6032L11.4268 6.76013V14.4463Z" stroke="white" stroke-width="2" stroke-linecap="round" stroke-linejoin="round"/>
</svg>
