<?xml version="1.0" encoding="UTF-8"?>
<svg id="Layer_1" xmlns="http://www.w3.org/2000/svg" version="1.1" viewBox="0 0 29 28">
  <!-- Generator: Adobe Illustrator 29.3.1, SVG Export Plug-In . SVG Version: 2.1.0 Build 151)  -->
  <defs>
    <style>
      .st0 {
        fill: none;
        stroke: #72fd7d;
        stroke-linecap: round;
        stroke-linejoin: round;
        stroke-width: 2px;
      }
    </style>
  </defs>
  <path class="st0" d="M20.5,2.3h-12.1c-3.3,0-6,2.6-6,5.8v11.7c0,3.2,2.7,5.8,6,5.8h12.1c3.3,0,6-2.6,6-5.8v-11.7c0-3.2-2.7-5.8-6-5.8Z"/>
  <path class="st0" d="M19.3,13.3c.1,1,0,2-.5,2.8-.5.9-1.2,1.6-2.1,2-.9.4-1.9.6-2.9.4-1-.2-1.9-.6-2.6-1.3-.7-.7-1.2-1.6-1.4-2.6-.2-1,0-2,.5-2.8.5-.9,1.2-1.6,2.1-2,.9-.5,1.9-.6,2.9-.5,1,.1,2,.6,2.7,1.3.7.7,1.2,1.6,1.4,2.6Z"/>
  <path class="st0" d="M21.1,7.6h0"/>
</svg>