<svg width="26" height="24" viewBox="0 0 26 24" fill="none" xmlns="http://www.w3.org/2000/svg">
<path d="M25.1317 0.565761C24.7952 0.282848 24.3891 0.0974309 23.9566 0.0292421C23.5241 -0.0389468 23.0814 0.012644 22.6756 0.178524L1.49582 8.82042C1.04287 9.00876 0.657316 9.33185 0.390317 9.74682C0.123318 10.1618 -0.0124952 10.649 0.000904073 11.1438C0.0143033 11.6386 0.176281 12.1176 0.465339 12.5172C0.754396 12.9168 1.15686 13.2181 1.61932 13.3811L5.90352 14.8869L8.29145 22.8674C8.3239 22.9741 8.37099 23.0755 8.43136 23.1689C8.44052 23.1832 8.45343 23.1939 8.46317 23.2078C8.53291 23.3062 8.61718 23.3931 8.71305 23.4655C8.74031 23.4865 8.76642 23.5062 8.79557 23.5249C8.90777 23.6001 9.03202 23.6551 9.1628 23.6874L9.1768 23.6886L9.18473 23.6921C9.26336 23.7082 9.34339 23.7164 9.42364 23.7166C9.43135 23.7166 9.43821 23.7128 9.44586 23.7127C9.56695 23.7106 9.68699 23.6895 9.8017 23.6502C9.82838 23.641 9.85125 23.6257 9.87715 23.6146C9.96269 23.5787 10.0437 23.5328 10.1186 23.4777C10.1785 23.4267 10.2385 23.3756 10.2985 23.3246L13.492 19.7613L18.2552 23.4903C18.6745 23.8202 19.1907 23.9996 19.7221 24C20.279 23.9993 20.8187 23.8051 21.2507 23.45C21.6828 23.095 21.9809 22.6006 22.0951 22.0497L25.9511 2.91958C26.0385 2.48902 26.0084 2.04255 25.864 1.62794C25.7197 1.21333 25.4665 0.846176 25.1317 0.565761ZM9.89226 15.2671C9.72839 15.4321 9.61637 15.6423 9.57026 15.8713L9.20446 17.6677L8.27782 14.5706L13.0823 12.0421L9.89226 15.2671ZM19.7037 21.6019L14.0749 17.1952C13.8394 17.0113 13.544 16.9238 13.2475 16.9502C12.9511 16.9765 12.6753 17.1148 12.4752 17.3375L11.4525 18.4784L11.8139 16.7029L20.185 8.24302C20.3848 8.04135 20.5065 7.77404 20.5281 7.4895C20.5497 7.20495 20.4698 6.92199 20.3028 6.69187C20.1358 6.46175 19.8927 6.29968 19.6177 6.23503C19.3427 6.17038 19.0538 6.20742 18.8034 6.33944L6.78961 12.661L2.38798 11.0331L23.6358 2.44248L19.7037 21.6019Z" fill="white"/>
</svg>
